<?xml version="1.0" encoding="utf-8"?>
<!-- Generator: Adobe Illustrator 27.6.1, SVG Export Plug-In . SVG Version: 6.00 Build 0)  -->
<svg version="1.1" id="Layer_1" xmlns="http://www.w3.org/2000/svg" xmlns:xlink="http://www.w3.org/1999/xlink" x="0px" y="0px"
	 viewBox="0 0 615 475" style="enable-background:new 0 0 615 475;" xml:space="preserve">
<style type="text/css">
	.st0{fill:none;stroke:#FFFFFF;stroke-width:5;stroke-miterlimit:10;}
	.st1{fill:none;stroke:#FFFFFF;stroke-width:5;stroke-linecap:round;stroke-linejoin:round;stroke-miterlimit:10;}
	.st2{fill:none;stroke:#FFFFFF;stroke-width:3;stroke-miterlimit:10;}
	.st3{fill:none;stroke:#FFFFFF;stroke-miterlimit:10;}
</style>
<path d="M462.7701721,334.7886047c6.3095398,35.5145874,4.007843,45.7527771-12.837677,65.0757141
	c-10.8288574,16.1463928-28.3200684,26.2107849-45.9592896,33.7969971
	c-25.4118958,10.9302063-52.2831726,17.8562317-79.2707825,23.5810852
	c-67.5641479,14.3499146-140.9340668,20.7240295-202.9040222-10.3349609
	c-43.1146011-21.6114807-77.4624481-60.9925842-93.3779449-107.3539124s-13.1659727-99.1400146,7.6563568-143.4234924
	c38.5461159-81.9764328,126.8860474-125.3887253,210.9156036-155.105835
	c64.233017-22.7153015,132.9964752-40.6419106,200.4654999-32.2981796s126.9749451,51.837204,144.9526062,118.9009171
	c6.2182007,23.202301,7.713562,46.6521149,7.713562,70.7201538c0,17.2177582-2.9759521,29.6535645-8.0942993,43.0295105
	c-6.5776367,17.1960907-19.2254639,30.4854889-33.2903442,42.0433502
	C519.5205688,316.3392639,505.473999,314.7259521,462.7701721,334.7886047z"/>
<path class="st0" d="M210.25,313.9500122c43.5500031,1.1300049,152.8599854-47.3599854,212.2700195-11.8599854
	c28.0799866,16.7799988,39.2999878,57.4199829,20.7900085,84.3900146
	c-10.2399902,14.9200134-26.7799988,24.2200012-43.4599915,31.230011c-24.0299988,10.1000061-49.4400024,16.5-74.9599915,21.7900085
	c-63.8899841,13.2600098-133.2700043,19.1499939-191.8699951-9.5499878
	c-40.7700043-19.9700012-73.25-56.3599854-88.3000031-99.2000122s-12.4500008-91.6100006,7.2399979-132.5299988
	c36.4499588-75.750061,121.1399612-113.9100647,200.5999451-141.3700562
	c60.7399902-20.9899979,124.6099854-39.5099983,188.4100037-31.7999992S561.039978,72.9499969,578.0400391,134.9199982
	c5.8800049,21.4400024,7.4017334,36.6165771,7.4017334,63.2700043c0,15.9100037-2.9217529,29.4799957-7.7617798,41.8399963
	C571.460022,255.9199982,559.5,268.2000122,546.2000122,278.8800049
	c-32.4000244,26.0299988-62.9500122,31.1099854-99.8800049,50.1699829"/>
<path class="st1" d="M122.4000015,152.5099945C101.1600037,157.8300018,89.9900055,170.4400024,83.5,182.4899902
	c-13.4700012,25.0099945-24.9300003,67.3399963-16,94.2999878c9.8399963,29.7399902,19.2099991,31.4899902,24.2600021,33.5100098
	c5.5199966,2.2099915,26.9199982,2.7900085,31.840004-0.5499878c3.3399963-2.269989,4.1200027-6.7900085,4.4400024-10.8200073
	c1.0399933-13.1900024,0.2299957-39.3399963-2.4100037-52.3000031c-5.3499985-1.4400024-19.4799957-2.0299988-25.0100021-1.7299957"
	/>
<path class="st1" d="M153.7599945,314.5799866c0.0599976-67.6900024,0-201.4400024,3.4900055-203.0399933
	c5.0099945,0,40.5899963,125.2899933,58.8800049,188.5599823"/>
<path class="st1" d="M212.9100037,85.5899963c9.9799957-3.8300018,19.1799927-9.4599991,29.1399994-13.3499985
	c9.9499969-3.8899994,21.2100067-5.9700012,31.280014-2.3899994c14.8399963,5.2699966,23,20.9700012,28.4599915,35.7399979
	c11.8800049,32.1600037,17.769989,66.5299988,17.2799988,100.8099976c-0.1300049,8.75-0.6799927,17.5800018-3.1199951,25.9799957
	c-5.2200012,17.9600067-18.7799988,32.5699921-34.4400024,42.7799835
	c-6.7999878,4.4299927-14.0400085,8.1400146-21.4500122,11.4299927c-4.7599945,2.1199951-17.1499939,9.6400146-22.3200073,8.2200012
	C228.1399994,292.2000122,211.0399933,86.3099976,212.9100037,85.5899963z"/>
<path class="st1" d="M341.3099976,272.3200073C339,196.2200012,342.730011,119.9300079,352.480011,44.4100037
	c6-5.1300011,15.6900024-3.3899994,21.6700134,1.7599983s9.1300049,12.7799988,11.9200134,20.170002
	c26.4899902,70.1500015,39.5499878,145.5400085,36.3299866,220.4500122"/>
<path class="st1" d="M440.9700012,292.4299927c-0.7000122-82.8600006-1.1900024-165.8300018,4.7600098-248.4799957
	c5.0100098,0,39.7999878,248.4799957,43.4299927,247.5899811c3.8200073,0.8800049,14.6000061-37.2099915,17.7799988-56.9499969
	c3.7900085-23.4600067,5.5700073-47.1999969,7.3400269-70.9000092c2.0700073-27.6699982,4.1400146-55.3399963,6.210022-83.0100021"
	/>
<path class="st1" d="M536.3900146,102.7200012c3.0700073,3.4499969,6.1400146,6.9000015,9.2199707,10.3499985
	c9.7800293,10.9700012,19.6599731,22.109993,26.2999878,35.2300034"/>
<path class="st1" d="M512.6599731,284.2000122C530.2199707,278.3400269,546,267.2700195,557.4799805,252.7500153"/>
<path class="st1" d="M554.1500244,122.8000031c-10.6900024,46.8399963-18.0200195,102.7599945-19.5599976,150.780014"/>
<path class="st1" d="M193.1600037,225.9100037c-11.0700073-3.4299927-22.8500061,4.0800018-34.3399963,2.5700073"/>
<path class="st1" d="M343.2099915,178.8600006c22.6799927-1.5599976,45.4700012-1.5899963,68.1499939-0.0700073"/>
<path class="st1" d="M113.8600006,333.3699951c1.9400024,25.3099976,5.7900009,50.480011,11.5200043,75.2099915
	c0.2099991,0.8900146,0.4400024,1.8299866,1.0899963,2.480011c0.7699966,0.769989,1.9400024,0.9299927,3.0200043,1.0599976
	c10.5200043,1.25,57.9900055,13.7200012,78.7700043,17.8999939"/>
<path class="st1" d="M229.1000061,435.1900024c1.7400055-33.9500122,7-67.7200012,15.6600037-100.6000061
	c1.0800018-4.0899963,2.3699951-8.4200134,5.5899963-11.1600037c2.7700043-2.3500061,6.5100098-3.1099854,10.0700073-3.7999878
	c4.2200012-0.8099976,8.6000061-1.6199951,12.75-0.5299988c6.5899963,1.7200012,11.0499878,7.7200012,14.6900024,13.4700012
	c17.7099915,27.9500122,29.2900085,59.7600098,33.7099915,92.5499878"/>
<path class="st1" d="M321.980011,314.0100098c-0.4200134-1.9200134-0.8200073-4.0100098,0.0499878-5.769989
	c0.6199951-1.2600098,1.8099976-2.1300049,2.9899902-2.8900146c9.2200012-5.9400024,35.019989-7.8900146,45.9700012-7.2099915
	c21.4200134,1.3299866,26.0400085,9.230011,27.8399963,12.8599854c1.0599976,2.1400146,1.0100098,4.6499939,0.730011,7.019989
	c-1.6400146,13.730011-10.8200073,26.3200073-23.3999939,32.0700073c9.0100098-3.4899902,19.5499878-6.8999939,27.8899841-2.0100098
	c6.7999878,3.980011,10.7200012,13.2999878,11.8800049,21.0899963c1.5799866,10.5700073-2.4100037,24.7200012-7.8399963,29.5400085
	c-3.7399902,3.3299866-46.75,17.5400085-57.3999939,19.8899841c-7.0700073,1.5599976-5.9700012-1.6600037-7.5700073-8.8900146
	c-1.4100037-6.3800049-2.8399963-12.7600098-4.2600098-19.1400146
	C333.2099915,365.0700073,327.5799866,339.5400085,321.980011,314.0100098z"/>
<path class="st1" d="M232.6600037,373.3800049c11.7299957,0.9700012,23.6199951,0.019989,35.0499878-2.7900085
	c11.6400146-2.8599854,23.4400024-7.6700134,35.2099915-5.4100037"/>
<path class="st2" d="M460.6617432,332.3861694c6.1920166,34.5382385,3.933197,44.4949646-12.5984802,63.2867126
	c-10.6271362,15.7024841-27.7924805,25.4902039-45.1030579,32.8678589
	c-24.9385071,10.6296997-51.3091736,17.3653564-77.7939758,22.9328003
	c-66.3054504,13.9554443-138.3084869,20.1543274-199.1239319-10.0508423
	c-42.3113785-21.017334-76.0193329-59.3157959-91.6383209-104.4025879s-12.9206905-96.4145355,7.5137177-139.4805908
	C79.745697,117.8167114,166.4398499,75.5978851,248.9039459,46.697731
	C311.9403076,24.606905,379.422699,7.17312,445.6347656,15.2874737s124.609375,50.4121323,142.2521973,115.6321716
	c6.1022949,22.5644379,7.5698242,45.3695984,7.5698242,68.7759705c0,16.7444153-2.9204712,28.8383484-7.9434814,41.8465729
	c-6.4551392,16.7233429-18.8673706,29.6474152-32.670166,40.8874969
	C516.3549194,314.4440308,502.5700073,312.8750916,460.6617432,332.3861694z"/>
<path class="st3" d="M426.2391052,304.1904907"/>
</svg>
