<?xml version="1.0" encoding="UTF-8"?>
<svg id="Layer_1" data-name="Layer 1" xmlns="http://www.w3.org/2000/svg" viewBox="0 0 640 561">
  <defs>
    <style>
      .cls-1 {
        stroke-linecap: round;
        stroke-linejoin: round;
      }

      .cls-1, .cls-2 {
        fill: none;
        stroke: #fff;
        stroke-width: 4px;
      }

      .cls-2 {
        stroke-miterlimit: 10;
      }
    </style>
  </defs>
  <rect width="640" height="561"/>
  <path class="cls-2" d="m227.33,369.45c43.55,1.13,152.86-47.36,212.27-11.86,28.08,16.78,39.3,57.42,20.79,84.39-10.24,14.92-26.78,24.22-43.46,31.23-24.03,10.1-49.44,16.5-74.96,21.79-63.89,13.26-133.27,19.15-191.87-9.55-40.77-19.97-73.25-56.36-88.3-99.2s-12.45-91.61,7.24-132.53c36.45-75.75,121.14-113.91,200.6-141.37,60.74-20.99,124.61-39.51,188.41-31.8s120.07,47.9,137.07,109.87c5.88,21.44,5.92,43.99,5.92,66.23,0,15.91-1.44,26.52-6.28,38.88-6.22,15.89-18.18,28.17-31.48,38.85-32.4,26.03-62.95,31.11-99.88,50.17"/>
  <path class="cls-1" d="m139.48,208.01c-21.24,5.32-32.41,17.93-38.9,29.98-13.47,25.01-24.93,67.34-16,94.3,9.84,29.74,19.21,31.49,24.26,33.51,5.52,2.21,26.92,2.79,31.84-.55,3.34-2.27,4.12-6.79,4.44-10.82,1.04-13.19.23-39.34-2.41-52.3-5.35-1.44-19.48-2.03-25.01-1.73"/>
  <path class="cls-1" d="m170.84,370.08c.06-67.69,0-201.44,3.49-203.04,5.01,0,40.59,125.29,58.88,188.56"/>
  <path class="cls-1" d="m229.99,141.09c9.98-3.83,19.18-9.46,29.14-13.35,9.95-3.89,21.21-5.97,31.28-2.39,14.84,5.27,23,20.97,28.46,35.74,11.88,32.16,17.77,66.53,17.28,100.81-.13,8.75-.68,17.58-3.12,25.98-5.22,17.96-18.78,32.57-34.44,42.78-6.8,4.43-14.04,8.14-21.45,11.43-4.76,2.12-17.15,9.64-22.32,8.22-9.6-2.61-26.7-208.5-24.83-209.22Z"/>
  <path class="cls-1" d="m358.39,327.82c-2.31-76.1,1.42-152.39,11.17-227.91,6-5.13,15.69-3.39,21.67,1.76s9.13,12.78,11.92,20.17c26.49,70.15,39.55,145.54,36.33,220.45"/>
  <path class="cls-1" d="m458.05,347.93c-.7-82.86-1.19-165.83,4.76-248.48,5.01,0,39.8,248.48,43.43,247.59,3.82.88,14.6-37.21,17.78-56.95,3.79-23.46,5.57-47.2,7.34-70.9,2.07-27.67,4.14-55.34,6.21-83.01"/>
  <path class="cls-1" d="m553.47,158.22c3.07,3.45,6.14,6.9,9.22,10.35,9.78,10.97,19.66,22.11,26.3,35.23"/>
  <path class="cls-1" d="m529.74,339.7c17.56-5.86,33.34-16.93,44.82-31.45"/>
  <path class="cls-1" d="m571.23,178.3c-10.69,46.84-18.02,102.76-19.56,150.78"/>
  <path class="cls-1" d="m210.24,281.41c-11.07-3.43-22.85,4.08-34.34,2.57"/>
  <path class="cls-1" d="m360.29,234.36c22.68-1.56,45.47-1.59,68.15-.07"/>
  <path class="cls-1" d="m130.94,388.87c1.94,25.31,5.79,50.48,11.52,75.21.21.89.44,1.83,1.09,2.48.77.77,1.94.93,3.02,1.06,10.52,1.25,57.99,13.72,78.77,17.9"/>
  <path class="cls-1" d="m246.18,490.69c1.74-33.95,7-67.72,15.66-100.6,1.08-4.09,2.37-8.42,5.59-11.16,2.77-2.35,6.51-3.11,10.07-3.8,4.22-.81,8.6-1.62,12.75-.53,6.59,1.72,11.05,7.72,14.69,13.47,17.71,27.95,29.29,59.76,33.71,92.55"/>
  <path class="cls-1" d="m339.06,369.51c-.42-1.92-.82-4.01.05-5.77.62-1.26,1.81-2.13,2.99-2.89,9.22-5.94,35.02-7.89,45.97-7.21,21.42,1.33,26.04,9.23,27.84,12.86,1.06,2.14,1.01,4.65.73,7.02-1.64,13.73-10.82,26.32-23.4,32.07,9.01-3.49,19.55-6.9,27.89-2.01,6.8,3.98,10.72,13.3,11.88,21.09,1.58,10.57-2.41,24.72-7.84,29.54-3.74,3.33-46.75,17.54-57.4,19.89-7.07,1.56-5.97-1.66-7.57-8.89-1.41-6.38-2.84-12.76-4.26-19.14-5.65-25.5-11.28-51.03-16.88-76.56Z"/>
  <path class="cls-1" d="m249.74,428.88c11.73.97,23.62.02,35.05-2.79,11.64-2.86,23.44-7.67,35.21-5.41"/>
</svg>