<?xml version="1.0" encoding="utf-8"?>
<!-- Generator: Adobe Illustrator 27.6.1, SVG Export Plug-In . SVG Version: 6.00 Build 0)  -->
<svg version="1.1" id="Layer_1" xmlns="http://www.w3.org/2000/svg" xmlns:xlink="http://www.w3.org/1999/xlink" x="0px" y="0px"
	 viewBox="0 0 615 475" style="enable-background:new 0 0 615 475;" xml:space="preserve">
<style type="text/css">
	.st0{fill:url(#SVGID_1_);}
	.st1{fill:none;stroke:#FFFFFF;stroke-width:5;stroke-miterlimit:10;}
	.st2{fill:none;stroke:#FFFFFF;stroke-width:5;stroke-linecap:round;stroke-linejoin:round;stroke-miterlimit:10;}
	.st3{fill:none;stroke:#FFFFFF;stroke-miterlimit:10;}
</style>
<radialGradient id="SVGID_1_" cx="326.166" cy="243.1135" r="329.3831" gradientTransform="matrix(0.8961 -0.3179 0.2164 0.6201 -34.5672 190.4146)" gradientUnits="userSpaceOnUse">
	<stop  offset="0" style="stop-color:#231F20"/>
	<stop  offset="0.8587" style="stop-color:#231F20;stop-opacity:0.6565"/>
	<stop  offset="1" style="stop-color:#231F20;stop-opacity:0.6"/>
</radialGradient>
<path class="st0" d="M460.8,316.6c31,18.7,17.5,57.2-2.9,87.2c-11.3,16.6-29.5,26.9-47.9,34.7c-26.5,11.2-54.5,18.3-82.7,24.2
	c-70.5,14.7-147,21.3-211.6-10.6c-45-22.2-80.8-62.7-97.4-110.3S4.6,240,26.3,194.5C66.5,110.3,159.9,67.9,247.5,37.3
	C314.5,14,385-6.6,455.3,2s132.4,53.3,151.2,122.2C613,148,613,173,613,197.8c0,17.7-1.6,29.5-6.9,43.2c-6.9,17.7-20,31.3-34.7,43.2
	c-35.7,28.9-59.7,29.7-100.4,50.9"/>
<path class="st1" d="M210.2,314c43.6,1.1,152.9-47.4,212.3-11.9c28.1,16.8,39.3,57.4,20.8,84.4c-10.2,14.9-26.8,24.2-43.5,31.2
	c-24,10.1-49.4,16.5-75,21.8C261,452.8,191.6,458.7,133,430c-40.8-20-73.2-56.4-88.3-99.2S32.3,239.1,52,198.2
	C88.4,122.5,173.1,84.3,252.6,56.8C313.3,35.9,377.2,17.3,441,25S561,72.9,578,134.9c5.9,21.4,7.4,36.6,7.4,63.3
	c0,15.9-2.9,29.5-7.8,41.8c-6.2,15.9-18.2,28.2-31.5,38.9c-32.4,26-63,31.1-99.9,50.2"/>
<path class="st2" d="M122.4,152.5c-21.2,5.3-32.4,17.9-38.9,30c-13.5,25-24.9,67.3-16,94.3c9.8,29.7,19.2,31.5,24.3,33.5
	c5.5,2.2,26.9,2.8,31.8-0.5c3.3-2.3,4.1-6.8,4.4-10.8c1-13.2,0.2-39.3-2.4-52.3c-5.3-1.4-19.5-2-25-1.7"/>
<path class="st2" d="M153.8,314.6c0.1-67.7,0-201.4,3.5-203c5,0,40.6,125.3,58.9,188.6"/>
<path class="st2" d="M212.9,85.6c10-3.8,19.2-9.5,29.1-13.3c9.9-3.9,21.2-6,31.3-2.4c14.8,5.3,23,21,28.5,35.7
	c11.9,32.2,17.8,66.5,17.3,100.8c-0.1,8.8-0.7,17.6-3.1,26c-5.2,18-18.8,32.6-34.4,42.8c-6.8,4.4-14,8.1-21.5,11.4
	c-4.8,2.1-17.1,9.6-22.3,8.2C228.1,292.2,211,86.3,212.9,85.6z"/>
<path class="st2" d="M341.3,272.3c-2.3-76.1,1.4-152.4,11.2-227.9c6-5.1,15.7-3.4,21.7,1.8s9.1,12.8,11.9,20.2
	c26.5,70.2,39.5,145.5,36.3,220.5"/>
<path class="st2" d="M441,292.4c-0.7-82.9-1.2-165.8,4.8-248.5c5,0,39.8,248.5,43.4,247.6c3.8,0.9,14.6-37.2,17.8-56.9
	c3.8-23.5,5.6-47.2,7.3-70.9c2.1-27.7,4.1-55.3,6.2-83"/>
<path class="st2" d="M536.4,102.7c3.1,3.4,6.1,6.9,9.2,10.3c9.8,11,19.7,22.1,26.3,35.2"/>
<path class="st2" d="M512.7,284.2c17.6-5.9,33.3-16.9,44.8-31.4"/>
<path class="st2" d="M554.2,122.8c-10.7,46.8-18,102.8-19.6,150.8"/>
<path class="st2" d="M193.2,225.9c-11.1-3.4-22.9,4.1-34.3,2.6"/>
<path class="st2" d="M343.2,178.9c22.7-1.6,45.5-1.6,68.1-0.1"/>
<path class="st2" d="M113.9,333.4c1.9,25.3,5.8,50.5,11.5,75.2c0.2,0.9,0.4,1.8,1.1,2.5c0.8,0.8,1.9,0.9,3,1.1
	c10.5,1.2,58,13.7,78.8,17.9"/>
<path class="st2" d="M229.1,435.2c1.7-34,7-67.7,15.7-100.6c1.1-4.1,2.4-8.4,5.6-11.2c2.8-2.4,6.5-3.1,10.1-3.8
	c4.2-0.8,8.6-1.6,12.8-0.5c6.6,1.7,11,7.7,14.7,13.5c17.7,28,29.3,59.8,33.7,92.5"/>
<path class="st2" d="M322,314c-0.4-1.9-0.8-4,0-5.8c0.6-1.3,1.8-2.1,3-2.9c9.2-5.9,35-7.9,46-7.2c21.4,1.3,26,9.2,27.8,12.9
	c1.1,2.1,1,4.6,0.7,7c-1.6,13.7-10.8,26.3-23.4,32.1c9-3.5,19.5-6.9,27.9-2c6.8,4,10.7,13.3,11.9,21.1c1.6,10.6-2.4,24.7-7.8,29.5
	c-3.7,3.3-46.8,17.5-57.4,19.9c-7.1,1.6-6-1.7-7.6-8.9c-1.4-6.4-2.8-12.8-4.3-19.1C333.2,365.1,327.6,339.5,322,314z"/>
<path class="st2" d="M232.7,373.4c11.7,1,23.6,0,35-2.8c11.6-2.9,23.4-7.7,35.2-5.4"/>
<path class="st3" d="M453.7,331.9c8.7,20,4.9,42.7-6.1,58.8c-10.5,15.3-27.5,24.8-44.6,32c-24.6,10.4-50.7,16.9-76.9,22.3
	c-65.5,13.6-136.7,19.6-196.8-9.8c-41.8-20.5-75.1-57.8-90.6-101.7S26,239.6,46.2,197.7c37.4-77.7,123-118.8,204.5-147
	c62.3-21.5,129-38.5,194.4-30.6s123.1,49.1,140.6,112.7c6,22,7.5,44.2,7.5,67c0,16.3-2.9,28.1-7.8,40.8
	c-6.4,16.3-18.6,28.9-32.3,39.8C515,311.6,495.1,312.9,453.7,331.9z"/>
<path class="st3" d="M426.2,304.2"/>
</svg>
